<svg width="24" height="16" viewBox="0 0 24 16" fill="none" xmlns="http://www.w3.org/2000/svg">
<path d="M20.0325 15.995H3.96753C3.12246 15.994 2.31228 15.6579 1.71472 15.0603C1.11717 14.4628 0.781022 13.6526 0.780029 12.8075V3.1925C0.781022 2.34743 1.11717 1.53726 1.71472 0.939698C2.31228 0.342141 3.12246 0.00599734 3.96753 0.00500488H20.0325C20.8776 0.00599734 21.6878 0.342141 22.2853 0.939698C22.8829 1.53726 23.219 2.34743 23.22 3.1925V12.8075C23.219 13.6526 22.8829 14.4628 22.2853 15.0603C21.6878 15.6579 20.8776 15.994 20.0325 15.995ZM3.96753 1.13C3.42052 1.13 2.89592 1.3473 2.50912 1.7341C2.12233 2.12089 1.90503 2.6455 1.90503 3.1925V12.8075C1.90503 13.3545 2.12233 13.8791 2.50912 14.2659C2.89592 14.6527 3.42052 14.87 3.96753 14.87H20.0325C20.5795 14.87 21.1041 14.6527 21.4909 14.2659C21.8777 13.8791 22.095 13.3545 22.095 12.8075V3.1925C22.095 2.6455 21.8777 2.12089 21.4909 1.7341C21.1041 1.3473 20.5795 1.13 20.0325 1.13H3.96753Z" fill="#3A57EE"/>
<path d="M11.9999 10.28C11.306 10.281 10.6307 10.0559 10.0762 9.63871L1.31993 3.01621C1.25806 2.97279 1.20558 2.91734 1.16562 2.85319C1.12566 2.78903 1.09903 2.71748 1.08734 2.64281C1.07565 2.56814 1.07912 2.49187 1.09756 2.41857C1.116 2.34527 1.14902 2.27644 1.19465 2.21619C1.24028 2.15593 1.29759 2.10549 1.36315 2.06788C1.42871 2.03027 1.50117 2.00625 1.57622 1.99727C1.65127 1.98829 1.72736 1.99452 1.79994 2.0156C1.87252 2.03668 1.94012 2.07217 1.99868 2.11996L10.7549 8.74996C11.1145 9.01838 11.5512 9.1634 11.9999 9.1634C12.4486 9.1634 12.8853 9.01838 13.2449 8.74996L22.0012 2.11996C22.0597 2.07217 22.1273 2.03668 22.1999 2.0156C22.2725 1.99452 22.3486 1.98829 22.4236 1.99727C22.4987 2.00625 22.5712 2.03027 22.6367 2.06788C22.7023 2.10549 22.7596 2.15593 22.8052 2.21619C22.8508 2.27644 22.8839 2.34527 22.9023 2.41857C22.9207 2.49187 22.9242 2.56814 22.9125 2.64281C22.9008 2.71748 22.8742 2.78903 22.8342 2.85319C22.7943 2.91734 22.7418 2.97279 22.6799 3.01621L13.9237 9.63871C13.3692 10.0559 12.6938 10.281 11.9999 10.28Z" fill="#3A57EE"/>
<path d="M1.56381 14.4275C1.44973 14.4277 1.33829 14.3931 1.24428 14.3285C1.15028 14.2639 1.07815 14.1722 1.03747 14.0656C0.996785 13.959 0.989475 13.8426 1.01651 13.7317C1.04354 13.6209 1.10363 13.5209 1.18882 13.445L8.08881 7.29124C8.20021 7.19179 8.34654 7.14065 8.49563 7.14909C8.64473 7.15753 8.78436 7.22485 8.88381 7.33624C8.98327 7.44763 9.0344 7.59397 9.02596 7.74306C9.01753 7.89216 8.95021 8.03179 8.83881 8.13124L1.93881 14.285C1.83635 14.3782 1.70234 14.4291 1.56381 14.4275ZM22.4363 14.4275C22.2978 14.4291 22.1638 14.3782 22.0613 14.285L15.1613 8.13124C15.0499 8.03179 14.9826 7.89216 14.9742 7.74306C14.9657 7.59397 15.0169 7.44763 15.1163 7.33624C15.2158 7.22485 15.3554 7.15753 15.5045 7.14909C15.6536 7.14065 15.7999 7.19179 15.9113 7.29124L22.8076 13.445C22.8927 13.5209 22.9528 13.6209 22.9799 13.7317C23.0069 13.8426 22.9996 13.959 22.9589 14.0656C22.9182 14.1722 22.8461 14.2639 22.7521 14.3285C22.6581 14.3931 22.5466 14.4277 22.4326 14.4275H22.4363Z" fill="#3A57EE"/>
</svg>
